<svg xmlns="http://www.w3.org/2000/svg" viewBox="0 0 512 512"><path d="M512 256c0 22.758-2.967 44.816-8.547 65.818a253.647 253.647 0 01-6.196 20.01c-19.132 53.781-55.745 99.286-103.006 129.661a255.364 255.364 0 01-32.183 17.575 251.036 251.036 0 01-15.266 6.363 253.735 253.735 0 01-39.027 11.337h-.01a255.708 255.708 0 01-39.905 4.963c-3.929.179-7.889.273-11.86.273-3.762 0-7.513-.084-11.233-.251-27.042-1.16-52.997-6.52-77.228-15.444a251.25 251.25 0 01-18.223-7.523 254.992 254.992 0 01-32.486-17.889 254.811 254.811 0 01-19.937-14.336c-35.443-28.139-63.248-65.484-79.809-108.429a248.134 248.134 0 01-6.165-17.93C3.814 306.719 0 281.799 0 256c0-32.475 6.05-63.551 17.084-92.139.052-.146.115-.293.167-.439A255.916 255.916 0 0159.288 92.16c.481-.575.961-1.149 1.452-1.724C107.698 35.109 177.748 0 256 0c141.385 0 256 114.615 256 256z" fill="#374266"/><path d="M240.194 83.579v75.91c0 7.422-6.017 13.438-13.438 13.438-7.422 0-13.438-6.017-13.438-13.438V84.22c0-20.9-16.536-38.404-37.431-38.799-21.381-.404-38.902 16.869-38.902 38.16v75.91c0 7.422-6.017 13.438-13.438 13.438-7.422 0-13.438-6.017-13.438-13.438V83.579c0-35.918 29.118-65.044 65.044-65.044s65.041 29.126 65.041 65.044z" fill="#c5c6e0"/><path d="M346.802 92.16v403.268a253.735 253.735 0 01-39.027 11.337h-.01a255.708 255.708 0 01-39.905 4.963c-3.929.178-7.889.272-11.86.272-3.762 0-7.513-.084-11.233-.251-33.949-1.452-66.184-9.529-95.451-22.967a254.992 254.992 0 01-32.486-17.889 254.811 254.811 0 01-19.937-14.336c-35.443-28.139-63.248-65.484-79.809-108.429V92.16h329.718z" fill="#ff526c"/><path d="M74.722 436.761c-24.922-24.986-44.707-55.102-57.638-88.632V92.16h57.637l.001 344.601z" fill="#e83150"/><path d="M284.95 83.579v75.91c0 7.422-6.017 13.438-13.438 13.438-7.422 0-13.438-6.017-13.438-13.438V84.22c0-20.9-16.536-38.404-37.431-38.799-21.381-.404-38.902 16.869-38.902 38.16v75.91c0 7.422-6.017 13.438-13.438 13.438-7.422 0-13.438-6.017-13.438-13.438V83.579c0-35.918 29.118-65.044 65.044-65.044s65.041 29.126 65.041 65.044z" fill="#f2f2f7"/><path d="M390.965 177.949v75.91c0 7.422-6.017 13.438-13.438 13.438-7.422 0-13.438-6.017-13.438-13.438V178.59c0-20.9-16.536-38.404-37.431-38.799-21.381-.404-38.902 16.869-38.902 38.16v75.91c0 7.422-6.017 13.438-13.438 13.438-7.422 0-13.438-6.017-13.438-13.438v-75.91c0-35.918 29.118-65.044 65.044-65.044s65.041 29.124 65.041 65.042z" fill="#c5c6e0"/><path d="M497.257 204.999v136.829c-19.132 53.781-55.745 99.286-103.006 129.661a255.364 255.364 0 01-32.183 17.575 251.036 251.036 0 01-15.266 6.363 253.735 253.735 0 01-39.027 11.337h-.01a255.708 255.708 0 01-39.905 4.963c-3.929.179-7.889.273-11.86.273-3.762 0-7.513-.084-11.233-.251-27.042-1.16-52.997-6.52-77.228-15.444V204.999h329.718z" fill="#ffe261"/><path d="M224.815 510.115c-9.275.354-47.182-9.261-57.276-13.809V204.999h57.637l-.361 305.116z" fill="#f58d2c"/><path d="M433.666 177.949v75.91c0 7.422-6.017 13.438-13.438 13.438-7.422 0-13.438-6.017-13.438-13.438V178.59c0-20.9-16.536-38.404-37.431-38.799-21.381-.404-38.902 16.869-38.902 38.16v75.91c0 7.422-6.017 13.438-13.438 13.438-7.422 0-13.438-6.017-13.438-13.438v-75.91c0-35.918 29.117-65.044 65.044-65.044s65.041 29.124 65.041 65.042z" fill="#f2f2f7"/></svg>