<svg height="512" width="512" xmlns="http://www.w3.org/2000/svg"><circle cx="256" cy="256" fill="#7584f2" r="256"/><path d="M512 256a260.9 260.9 0 00-.314-12.791L410.973 142.498l-85.08 25.193-45.095-46.316-89.826 4.526-68.444 269.777 115.715 115.715A259.73 259.73 0 00256 512c141.385 0 256-114.615 256-256z" fill="#4855b7"/><path d="M104.429 338.231l18.099 57.447H336.76l18.099-57.447-119.561-9.424z" fill="#ffce00"/><path d="M354.859 338.231l-119.561-9.424-5.925.426v66.445H336.76z" fill="#fdba12"/><path d="M377.686 265.778l-142.388-9.424-153.696 9.424 22.827 72.453h250.43z" fill="#fa0"/><path d="M377.687 265.778l-142.389-9.424-5.925.363v81.514h125.486z" fill="#ff9500"/><path d="M292.501 190.869c-7.58 27.6-32.85 47.877-62.857 47.877s-55.277-20.277-62.857-47.877H58.001l23.601 74.908h296.085l23.601-74.908z" fill="#ffce00"/><path d="M401.287 190.869H292.501c-7.58 27.6-32.85 47.877-62.857 47.877-.091 0-.18-.005-.271-.006v27.038h148.314z" fill="#fdba12"/><path d="M229.644 246.685c-40.316-.001-73.116-32.801-73.116-73.117 0-19.53 7.605-37.891 21.415-51.701 13.81-13.809 32.172-21.415 51.7-21.415h.001c40.316.001 73.116 32.801 73.116 73.117s-32.8 73.116-73.116 73.116zm0-116.232c-11.517 0-22.344 4.484-30.488 12.628-8.143 8.144-12.628 18.971-12.628 30.488 0 23.774 19.342 43.116 43.116 43.117 23.774 0 43.116-19.342 43.116-43.116 0-23.775-19.342-43.117-43.116-43.117z" fill="#fff"/><path d="M229.644 100.453s.001 0 0 0c-.091 0-.181.006-.272.006v30c.091 0 .181-.006.272-.006 23.774 0 43.116 19.342 43.116 43.117 0 23.774-19.342 43.116-43.116 43.116-.091 0-.181-.006-.272-.007v30c.091 0 .181.007.272.007 40.316 0 73.116-32.8 73.116-73.116s-32.799-73.117-73.116-73.117z" fill="#e9edf5"/><path d="M364.933 210.346l46.041-40.165 46.04 40.165v113.602h-92.081z" fill="#ff6c52"/><path d="M457.014 210.346l-46.04-40.165.308 153.767h45.732z" fill="#ff432e"/><path d="M378.276 288.542l52.31-52.31 12.937 12.938-52.31 52.31z" fill="#fff"/><path d="M430.662 236.215l-19.517 19.517.052 25.829 32.405-32.406z" fill="#e9edf5"/><circle cx="390.049" cy="247.919" fill="#fff" r="11.774"/><circle cx="431.898" cy="289.769" fill="#e9edf5" r="11.774"/><path d="M425.974 196.36h-30v-16.646c0-13.13-10.683-23.813-23.813-23.813-13.131 0-23.813 10.683-23.813 23.813v11.156h-30v-11.156c0-29.672 24.141-53.813 53.813-53.813 29.673 0 53.813 24.141 53.813 53.813z" fill="#fff"/></svg>