<svg height="512" viewBox="0 0 497 497" width="512" xmlns="http://www.w3.org/2000/svg"><path d="M15 166h467v273.75H15z" fill="#ff7c8b"/><path d="M452 409.75H15v30h467V166h-30z" fill="#ff5368"/><path d="M233.5 222.25H60c-8.284 0-15 6.716-15 15v202.5h203.5v-202.5c0-8.284-6.716-15-15-15z" fill="#fff9eb"/><path d="M233.5 222.25h-15v187.5H45v30h203.5v-202.5c0-8.284-6.716-15-15-15z" fill="#e9e3d5"/><path d="M437 222.25H293.5c-8.284 0-15 6.716-15 15v117.5c0 8.284 6.716 15 15 15H437c8.284 0 15-6.716 15-15v-117.5c0-8.284-6.716-15-15-15z" fill="#fff9eb"/><path d="M437 222.25h-15v117.5H278.5v15c0 8.284 6.716 15 15 15H437c8.284 0 15-6.716 15-15v-117.5c0-8.284-6.716-15-15-15z" fill="#e9e3d5"/><path d="M422 252.25v87.5H308.5v-87.5z" fill="#9dc6fb"/><path d="M392 309.75h-83.5v30H422v-87.5h-30z" fill="#80b4fb"/><path d="M218.5 252.25v187.5H75v-187.5z" fill="#9dc6fb"/><path d="M188.5 252.25v157.5h-41.75v-157.5h-30v157.5H75v30h143.5v-187.5z" fill="#80b4fb"/><path d="M146.75 244.75a7.5 7.5 0 00-7.5 7.5v187.5h15v-187.5a7.5 7.5 0 00-7.5-7.5z" fill="#fff9eb"/><path d="M482 139.75v-37.494c0-8.284-6.716-15-15-15H30c-8.284 0-15 6.716-15 15v37.494c-8.284 0-15 6.716-15 15v22.5c0 8.284 6.716 15 15 15h467c8.284 0 15-6.716 15-15v-22.5c0-8.284-6.716-15-15-15z" fill="#d3cdbf"/><path d="M482 139.75v-37.494c0-8.284-6.716-15-15-15h-15v22.494H15v30h452v22.5H0v15c0 8.284 6.716 15 15 15h467c8.284 0 15-6.716 15-15v-22.5c0-8.284-6.716-15-15-15z" fill="#c4bfb1"/><path d="M361 57.25H136c-8.284 0-15 6.716-15 15v75c0 8.284 6.716 15 15 15h225c8.284 0 15-6.716 15-15v-75c0-8.284-6.716-15-15-15z" fill="#ff7c8b"/><path d="M361 57.25h-15v75H121v15c0 8.284 6.716 15 15 15h225c8.284 0 15-6.716 15-15v-75c0-8.284-6.716-15-15-15z" fill="#ff5368"/><path d="M182.516 121.002c0 10.338-8.41 18.748-18.748 18.748h-11.249a7.498 7.498 0 01-7.498-7.5 7.498 7.498 0 017.498-7.499h11.249a3.754 3.754 0 003.75-3.75 3.754 3.754 0 00-3.75-3.749c-10.337 0-18.747-8.41-18.747-18.748 0-10.337 8.41-18.747 18.747-18.747h5.249a7.5 7.5 0 110 14.998h-5.249a3.754 3.754 0 00-3.749 3.75 3.754 3.754 0 003.749 3.75c10.337 0 18.748 8.41 18.748 18.747zm54.708-33.746v44.995a7.498 7.498 0 11-14.997 0v-14.998h-17v14.998a7.5 7.5 0 01-14.998 0V87.256a7.5 7.5 0 0114.998 0v14.999h17V87.256a7.499 7.499 0 0114.997 0zm65.989 22.497c0 16.541-13.457 29.997-29.997 29.997-16.539 0-29.996-13.456-29.996-29.997 0-16.54 13.457-29.996 29.996-29.996 16.54.001 29.997 13.457 29.997 29.996zm-14.999 0c0-8.27-6.729-14.998-14.998-14.998-8.271 0-14.998 6.729-14.998 14.998 0 8.27 6.728 14.999 14.998 14.999 8.269 0 14.998-6.729 14.998-14.999zm65.473-7.498c0 12.405-10.036 22.497-22.371 22.497h-7.125v7.499a7.5 7.5 0 01-14.998 0V87.256a7.497 7.497 0 017.498-7.498h14.625c12.334 0 22.371 10.092 22.371 22.497zm-15 0c0-4.136-3.308-7.5-7.372-7.5h-7.125v14.998h7.125c4.065 0 7.372-3.363 7.372-7.498z" fill="#fff9eb"/></svg>